<mxfile host="app.diagrams.net" modified="2024-04-06T08:52:09.244Z" agent="Mozilla/5.0 (Macintosh; Intel Mac OS X 10_15_7) AppleWebKit/605.1.15 (KHTML, like Gecko) Version/17.4.1 Safari/605.1.15" etag="iAKE4t8w2GNaM-3NjRm_" version="24.2.2" type="device">
  <diagram name="Page-1" id="Li-CGSvkNxsTUz18ZMYy">
    <mxGraphModel dx="2199" dy="939" grid="1" gridSize="10" guides="1" tooltips="1" connect="1" arrows="1" fold="1" page="1" pageScale="1" pageWidth="850" pageHeight="1100" math="0" shadow="0">
      <root>
        <mxCell id="0" />
        <mxCell id="1" parent="0" />
        <mxCell id="GviEnj7zUal1xYC4-U6z-1" value="&lt;font style=&quot;font-size: 19px;&quot;&gt;Hardware&lt;/font&gt;" style="text;html=1;align=center;verticalAlign=middle;whiteSpace=wrap;rounded=0;" vertex="1" parent="1">
          <mxGeometry x="150" y="90" width="130" height="50" as="geometry" />
        </mxCell>
        <mxCell id="GviEnj7zUal1xYC4-U6z-2" value="&lt;font style=&quot;font-size: 19px;&quot;&gt;Software&lt;/font&gt;" style="text;html=1;align=center;verticalAlign=middle;whiteSpace=wrap;rounded=0;" vertex="1" parent="1">
          <mxGeometry x="560" y="90" width="130" height="50" as="geometry" />
        </mxCell>
        <mxCell id="GviEnj7zUal1xYC4-U6z-3" value="" style="endArrow=none;dashed=1;html=1;dashPattern=1 3;strokeWidth=2;rounded=0;" edge="1" parent="1">
          <mxGeometry width="50" height="50" relative="1" as="geometry">
            <mxPoint x="423.75" y="770" as="sourcePoint" />
            <mxPoint x="423.75" y="90" as="targetPoint" />
          </mxGeometry>
        </mxCell>
        <mxCell id="GviEnj7zUal1xYC4-U6z-4" value="" style="endArrow=none;html=1;rounded=0;" edge="1" parent="1">
          <mxGeometry width="50" height="50" relative="1" as="geometry">
            <mxPoint x="40" y="160" as="sourcePoint" />
            <mxPoint x="800" y="160" as="targetPoint" />
          </mxGeometry>
        </mxCell>
        <mxCell id="GviEnj7zUal1xYC4-U6z-5" value="&lt;font style=&quot;font-size: 19px;&quot;&gt;SM&lt;/font&gt;&lt;div&gt;4 warp Scheduler (4 x 32 threads)&lt;/div&gt;&lt;div&gt;&lt;br&gt;&lt;/div&gt;&lt;div&gt;&lt;br&gt;&lt;/div&gt;&lt;div&gt;&lt;br&gt;&lt;/div&gt;&lt;div&gt;&lt;br&gt;&lt;/div&gt;&lt;div&gt;&lt;br&gt;&lt;/div&gt;&lt;div&gt;&lt;br&gt;&lt;/div&gt;&lt;div&gt;&lt;br&gt;&lt;/div&gt;" style="rounded=1;whiteSpace=wrap;html=1;fillColor=none;strokeColor=#9673a6;" vertex="1" parent="1">
          <mxGeometry x="-40" y="210" width="450" height="210" as="geometry" />
        </mxCell>
        <mxCell id="GviEnj7zUal1xYC4-U6z-11" value="" style="shape=curlyBracket;whiteSpace=wrap;html=1;rounded=1;labelPosition=left;verticalLabelPosition=middle;align=right;verticalAlign=middle;rotation=90;" vertex="1" parent="1">
          <mxGeometry x="237.82" y="230.94" width="20" height="238.13" as="geometry" />
        </mxCell>
        <mxCell id="GviEnj7zUal1xYC4-U6z-12" value="&lt;font style=&quot;font-size: 14px;&quot;&gt;Unified data cache&lt;/font&gt;" style="text;html=1;align=center;verticalAlign=middle;whiteSpace=wrap;rounded=0;" vertex="1" parent="1">
          <mxGeometry x="187.5" y="310" width="120" height="30" as="geometry" />
        </mxCell>
        <mxCell id="GviEnj7zUal1xYC4-U6z-13" value="L1 cache" style="text;html=1;align=center;verticalAlign=middle;whiteSpace=wrap;rounded=0;" vertex="1" parent="1">
          <mxGeometry x="226.88" y="370" width="60" height="30" as="geometry" />
        </mxCell>
        <mxCell id="GviEnj7zUal1xYC4-U6z-14" value="Texture cache" style="text;html=1;align=center;verticalAlign=middle;whiteSpace=wrap;rounded=0;" vertex="1" parent="1">
          <mxGeometry x="100" y="370" width="60" height="30" as="geometry" />
        </mxCell>
        <mxCell id="GviEnj7zUal1xYC4-U6z-15" value="Shared memory" style="text;html=1;align=center;verticalAlign=middle;whiteSpace=wrap;rounded=0;" vertex="1" parent="1">
          <mxGeometry x="310" y="370" width="100" height="30" as="geometry" />
        </mxCell>
        <mxCell id="GviEnj7zUal1xYC4-U6z-16" value="" style="shape=curlyBracket;whiteSpace=wrap;html=1;rounded=1;labelPosition=left;verticalLabelPosition=middle;align=right;verticalAlign=middle;rotation=0;" vertex="1" parent="1">
          <mxGeometry x="290" y="429.07" width="20" height="60" as="geometry" />
        </mxCell>
        <mxCell id="GviEnj7zUal1xYC4-U6z-17" value="L2 cache" style="text;html=1;align=center;verticalAlign=middle;whiteSpace=wrap;rounded=0;" vertex="1" parent="1">
          <mxGeometry x="226.88" y="444.07" width="60" height="30" as="geometry" />
        </mxCell>
        <mxCell id="GviEnj7zUal1xYC4-U6z-18" value="Persisting" style="text;html=1;align=center;verticalAlign=middle;whiteSpace=wrap;rounded=0;" vertex="1" parent="1">
          <mxGeometry x="320" y="470" width="60" height="30" as="geometry" />
        </mxCell>
        <mxCell id="GviEnj7zUal1xYC4-U6z-19" value="Streaming" style="text;html=1;align=center;verticalAlign=middle;whiteSpace=wrap;rounded=0;" vertex="1" parent="1">
          <mxGeometry x="320" y="420" width="60" height="30" as="geometry" />
        </mxCell>
        <mxCell id="GviEnj7zUal1xYC4-U6z-20" value="" style="shape=curlyBracket;whiteSpace=wrap;html=1;rounded=1;labelPosition=left;verticalLabelPosition=middle;align=right;verticalAlign=middle;rotation=-90;" vertex="1" parent="1">
          <mxGeometry x="175" y="395" width="50" height="360" as="geometry" />
        </mxCell>
        <mxCell id="GviEnj7zUal1xYC4-U6z-21" value="&lt;font style=&quot;font-size: 15px;&quot;&gt;Device Memory&lt;/font&gt;" style="text;html=1;align=center;verticalAlign=middle;whiteSpace=wrap;rounded=0;" vertex="1" parent="1">
          <mxGeometry x="155" y="600" width="120" height="30" as="geometry" />
        </mxCell>
        <mxCell id="GviEnj7zUal1xYC4-U6z-22" value="Constant cache&lt;div&gt;(readonly)&lt;/div&gt;" style="text;html=1;align=center;verticalAlign=middle;whiteSpace=wrap;rounded=0;" vertex="1" parent="1">
          <mxGeometry x="-40" y="310" width="100" height="30" as="geometry" />
        </mxCell>
        <mxCell id="GviEnj7zUal1xYC4-U6z-23" value="Constant memory" style="text;html=1;align=center;verticalAlign=middle;whiteSpace=wrap;rounded=0;" vertex="1" parent="1">
          <mxGeometry x="-45" y="520" width="110" height="30" as="geometry" />
        </mxCell>
        <mxCell id="GviEnj7zUal1xYC4-U6z-24" value="Texture and surface&lt;div&gt;memory&lt;/div&gt;" style="text;html=1;align=center;verticalAlign=middle;whiteSpace=wrap;rounded=0;" vertex="1" parent="1">
          <mxGeometry x="72.5" y="520" width="115" height="30" as="geometry" />
        </mxCell>
        <mxCell id="GviEnj7zUal1xYC4-U6z-25" value="Global&lt;div&gt;memory&lt;/div&gt;" style="text;html=1;align=center;verticalAlign=middle;whiteSpace=wrap;rounded=0;" vertex="1" parent="1">
          <mxGeometry x="200" y="520" width="60" height="30" as="geometry" />
        </mxCell>
        <mxCell id="GviEnj7zUal1xYC4-U6z-26" value="Local&lt;div&gt;memory&lt;/div&gt;" style="text;html=1;align=center;verticalAlign=middle;whiteSpace=wrap;rounded=0;" vertex="1" parent="1">
          <mxGeometry x="257.82" y="520" width="60" height="30" as="geometry" />
        </mxCell>
        <mxCell id="GviEnj7zUal1xYC4-U6z-46" style="edgeStyle=orthogonalEdgeStyle;rounded=0;orthogonalLoop=1;jettySize=auto;html=1;exitX=0;exitY=0.5;exitDx=0;exitDy=0;entryX=1;entryY=0.5;entryDx=0;entryDy=0;fillColor=#dae8fc;strokeColor=#6c8ebf;" edge="1" parent="1" source="GviEnj7zUal1xYC4-U6z-47" target="GviEnj7zUal1xYC4-U6z-26">
          <mxGeometry relative="1" as="geometry" />
        </mxCell>
        <mxCell id="GviEnj7zUal1xYC4-U6z-28" value="&lt;font style=&quot;font-size: 17px;&quot;&gt;Thread&lt;/font&gt;" style="text;html=1;align=center;verticalAlign=middle;whiteSpace=wrap;rounded=0;" vertex="1" parent="1">
          <mxGeometry x="585" y="515.5" width="80" height="39" as="geometry" />
        </mxCell>
        <mxCell id="GviEnj7zUal1xYC4-U6z-49" style="rounded=0;orthogonalLoop=1;jettySize=auto;html=1;exitX=0;exitY=0.5;exitDx=0;exitDy=0;entryX=1;entryY=0.75;entryDx=0;entryDy=0;fillColor=#dae8fc;strokeColor=#6c8ebf;" edge="1" parent="1" source="GviEnj7zUal1xYC4-U6z-29" target="GviEnj7zUal1xYC4-U6z-15">
          <mxGeometry relative="1" as="geometry" />
        </mxCell>
        <mxCell id="GviEnj7zUal1xYC4-U6z-29" value="&lt;font style=&quot;font-size: 17px;&quot;&gt;Block&lt;/font&gt;" style="text;html=1;align=center;verticalAlign=middle;whiteSpace=wrap;rounded=0;" vertex="1" parent="1">
          <mxGeometry x="585" y="405.07" width="80" height="39" as="geometry" />
        </mxCell>
        <mxCell id="GviEnj7zUal1xYC4-U6z-30" value="&lt;font style=&quot;font-size: 17px;&quot;&gt;Grid&lt;/font&gt;" style="text;html=1;align=center;verticalAlign=middle;whiteSpace=wrap;rounded=0;" vertex="1" parent="1">
          <mxGeometry x="585" y="230.94" width="80" height="39" as="geometry" />
        </mxCell>
        <mxCell id="GviEnj7zUal1xYC4-U6z-50" style="rounded=0;orthogonalLoop=1;jettySize=auto;html=1;exitX=0;exitY=0.5;exitDx=0;exitDy=0;entryX=1;entryY=0.25;entryDx=0;entryDy=0;fillColor=#dae8fc;strokeColor=#6c8ebf;" edge="1" parent="1" source="GviEnj7zUal1xYC4-U6z-31" target="GviEnj7zUal1xYC4-U6z-15">
          <mxGeometry relative="1" as="geometry" />
        </mxCell>
        <mxCell id="GviEnj7zUal1xYC4-U6z-31" value="&lt;font style=&quot;font-size: 17px;&quot;&gt;Cluster&lt;/font&gt;&lt;div style=&quot;font-size: 10px;&quot;&gt;&lt;font style=&quot;font-size: 10px;&quot;&gt;capability 9.0&lt;/font&gt;&lt;/div&gt;" style="text;html=1;align=center;verticalAlign=middle;whiteSpace=wrap;rounded=0;" vertex="1" parent="1">
          <mxGeometry x="585" y="320" width="80" height="39" as="geometry" />
        </mxCell>
        <mxCell id="GviEnj7zUal1xYC4-U6z-32" value="" style="endArrow=classic;html=1;rounded=0;fillColor=#d5e8d4;strokeColor=#82b366;" edge="1" parent="1">
          <mxGeometry width="50" height="50" relative="1" as="geometry">
            <mxPoint x="685" y="664.79" as="sourcePoint" />
            <mxPoint x="635" y="664.79" as="targetPoint" />
          </mxGeometry>
        </mxCell>
        <mxCell id="GviEnj7zUal1xYC4-U6z-33" value="" style="endArrow=classic;html=1;rounded=0;entryX=0.5;entryY=0;entryDx=0;entryDy=0;fillColor=#d5e8d4;strokeColor=#82b366;" edge="1" parent="1" source="GviEnj7zUal1xYC4-U6z-22" target="GviEnj7zUal1xYC4-U6z-23">
          <mxGeometry width="50" height="50" relative="1" as="geometry">
            <mxPoint x="-1" y="370" as="sourcePoint" />
            <mxPoint x="-1" y="490" as="targetPoint" />
          </mxGeometry>
        </mxCell>
        <mxCell id="GviEnj7zUal1xYC4-U6z-34" value="" style="endArrow=classic;html=1;rounded=0;entryX=0.5;entryY=0;entryDx=0;entryDy=0;exitX=0.5;exitY=1;exitDx=0;exitDy=0;fillColor=#d5e8d4;strokeColor=#82b366;" edge="1" parent="1" source="GviEnj7zUal1xYC4-U6z-13" target="GviEnj7zUal1xYC4-U6z-17">
          <mxGeometry width="50" height="50" relative="1" as="geometry">
            <mxPoint x="187.5" y="390" as="sourcePoint" />
            <mxPoint x="187.5" y="510" as="targetPoint" />
          </mxGeometry>
        </mxCell>
        <mxCell id="GviEnj7zUal1xYC4-U6z-35" value="" style="endArrow=classic;html=1;rounded=0;entryX=0.5;entryY=0;entryDx=0;entryDy=0;exitX=0.5;exitY=1;exitDx=0;exitDy=0;fillColor=#d5e8d4;strokeColor=#82b366;" edge="1" parent="1" source="GviEnj7zUal1xYC4-U6z-17" target="GviEnj7zUal1xYC4-U6z-25">
          <mxGeometry width="50" height="50" relative="1" as="geometry">
            <mxPoint x="187.5" y="418.5" as="sourcePoint" />
            <mxPoint x="187.5" y="538.5" as="targetPoint" />
          </mxGeometry>
        </mxCell>
        <mxCell id="GviEnj7zUal1xYC4-U6z-36" value="" style="endArrow=classic;html=1;rounded=0;entryX=0.5;entryY=0;entryDx=0;entryDy=0;exitX=0.5;exitY=1;exitDx=0;exitDy=0;fillColor=#d5e8d4;strokeColor=#82b366;" edge="1" parent="1" source="GviEnj7zUal1xYC4-U6z-17" target="GviEnj7zUal1xYC4-U6z-26">
          <mxGeometry width="50" height="50" relative="1" as="geometry">
            <mxPoint x="280.12" y="474" as="sourcePoint" />
            <mxPoint x="253.12" y="520" as="targetPoint" />
          </mxGeometry>
        </mxCell>
        <mxCell id="GviEnj7zUal1xYC4-U6z-37" value="" style="rounded=0;whiteSpace=wrap;html=1;fillColor=none;strokeColor=#d79b00;" vertex="1" parent="1">
          <mxGeometry x="-40" y="500" width="302.18" height="70" as="geometry" />
        </mxCell>
        <mxCell id="GviEnj7zUal1xYC4-U6z-39" value="" style="rounded=0;whiteSpace=wrap;html=1;fillColor=none;strokeColor=#b85450;" vertex="1" parent="1">
          <mxGeometry x="-37.5" y="510" width="225" height="50" as="geometry" />
        </mxCell>
        <mxCell id="GviEnj7zUal1xYC4-U6z-44" style="edgeStyle=orthogonalEdgeStyle;rounded=0;orthogonalLoop=1;jettySize=auto;html=1;exitX=0.5;exitY=0;exitDx=0;exitDy=0;endArrow=none;endFill=0;fillColor=#f8cecc;strokeColor=#b85450;" edge="1" parent="1" source="GviEnj7zUal1xYC4-U6z-40" target="GviEnj7zUal1xYC4-U6z-39">
          <mxGeometry relative="1" as="geometry" />
        </mxCell>
        <mxCell id="GviEnj7zUal1xYC4-U6z-40" value="&lt;font color=&quot;#cc0000&quot;&gt;Readonly&lt;/font&gt;" style="text;html=1;align=center;verticalAlign=middle;whiteSpace=wrap;rounded=0;" vertex="1" parent="1">
          <mxGeometry x="45" y="590" width="60" height="30" as="geometry" />
        </mxCell>
        <mxCell id="GviEnj7zUal1xYC4-U6z-41" value="&lt;font color=&quot;#ffc450&quot;&gt;For all threads&lt;/font&gt;" style="text;html=1;align=center;verticalAlign=middle;whiteSpace=wrap;rounded=0;fillColor=none;strokeColor=none;" vertex="1" parent="1">
          <mxGeometry x="-100" y="463.5" width="90" height="30" as="geometry" />
        </mxCell>
        <mxCell id="GviEnj7zUal1xYC4-U6z-42" style="edgeStyle=orthogonalEdgeStyle;rounded=0;orthogonalLoop=1;jettySize=auto;html=1;exitX=1;exitY=0.5;exitDx=0;exitDy=0;entryX=0.105;entryY=0.034;entryDx=0;entryDy=0;entryPerimeter=0;endArrow=none;endFill=0;fillColor=#ffe6cc;strokeColor=#d79b00;" edge="1" parent="1" source="GviEnj7zUal1xYC4-U6z-41" target="GviEnj7zUal1xYC4-U6z-37">
          <mxGeometry relative="1" as="geometry" />
        </mxCell>
        <mxCell id="GviEnj7zUal1xYC4-U6z-48" value="" style="edgeStyle=orthogonalEdgeStyle;rounded=0;orthogonalLoop=1;jettySize=auto;html=1;exitX=0;exitY=0.5;exitDx=0;exitDy=0;entryX=1;entryY=0.5;entryDx=0;entryDy=0;fillColor=#dae8fc;strokeColor=#6c8ebf;endArrow=none;endFill=0;" edge="1" parent="1" source="GviEnj7zUal1xYC4-U6z-28" target="GviEnj7zUal1xYC4-U6z-47">
          <mxGeometry relative="1" as="geometry">
            <mxPoint x="585" y="535" as="sourcePoint" />
            <mxPoint x="318" y="535" as="targetPoint" />
          </mxGeometry>
        </mxCell>
        <mxCell id="GviEnj7zUal1xYC4-U6z-47" value="Per thread only" style="text;html=1;align=center;verticalAlign=middle;whiteSpace=wrap;rounded=0;fillColor=none;strokeColor=none;" vertex="1" parent="1">
          <mxGeometry x="450" y="520" width="100" height="30" as="geometry" />
        </mxCell>
        <mxCell id="GviEnj7zUal1xYC4-U6z-51" value="Distributed shared memory" style="text;html=1;align=center;verticalAlign=middle;whiteSpace=wrap;rounded=0;rotation=348;" vertex="1" parent="1">
          <mxGeometry x="425" y="329" width="160" height="30" as="geometry" />
        </mxCell>
        <mxCell id="GviEnj7zUal1xYC4-U6z-52" value="All threads in block" style="text;html=1;align=center;verticalAlign=middle;whiteSpace=wrap;rounded=0;rotation=11;" vertex="1" parent="1">
          <mxGeometry x="445" y="405.07" width="110" height="30" as="geometry" />
        </mxCell>
        <mxCell id="GviEnj7zUal1xYC4-U6z-55" value="All blocks in cluster" style="text;html=1;align=center;verticalAlign=middle;whiteSpace=wrap;rounded=0;rotation=348;" vertex="1" parent="1">
          <mxGeometry x="450" y="350" width="115" height="30" as="geometry" />
        </mxCell>
        <mxCell id="GviEnj7zUal1xYC4-U6z-56" value="All threads on a same SM" style="text;html=1;align=center;verticalAlign=middle;whiteSpace=wrap;rounded=0;" vertex="1" parent="1">
          <mxGeometry x="665" y="409.57" width="140" height="30" as="geometry" />
        </mxCell>
        <mxCell id="GviEnj7zUal1xYC4-U6z-57" value="All blocks on a same GPC" style="text;html=1;align=center;verticalAlign=middle;whiteSpace=wrap;rounded=0;" vertex="1" parent="1">
          <mxGeometry x="657.5" y="324.5" width="155" height="30" as="geometry" />
        </mxCell>
        <mxCell id="GviEnj7zUal1xYC4-U6z-58" value="" style="rounded=0;whiteSpace=wrap;html=1;fillColor=none;dashed=1;dashPattern=8 8;" vertex="1" parent="1">
          <mxGeometry x="585" y="630" width="210" height="110" as="geometry" />
        </mxCell>
        <mxCell id="GviEnj7zUal1xYC4-U6z-60" value="cache" style="text;html=1;align=center;verticalAlign=middle;whiteSpace=wrap;rounded=0;" vertex="1" parent="1">
          <mxGeometry x="685" y="655" width="60" height="20" as="geometry" />
        </mxCell>
        <mxCell id="GviEnj7zUal1xYC4-U6z-61" value="" style="endArrow=classic;html=1;rounded=0;fillColor=#dae8fc;strokeColor=#6c8ebf;" edge="1" parent="1">
          <mxGeometry width="50" height="50" relative="1" as="geometry">
            <mxPoint x="685" y="705" as="sourcePoint" />
            <mxPoint x="635" y="705" as="targetPoint" />
          </mxGeometry>
        </mxCell>
        <mxCell id="GviEnj7zUal1xYC4-U6z-62" value="access" style="text;html=1;align=center;verticalAlign=middle;whiteSpace=wrap;rounded=0;" vertex="1" parent="1">
          <mxGeometry x="685" y="695" width="60" height="20" as="geometry" />
        </mxCell>
      </root>
    </mxGraphModel>
  </diagram>
</mxfile>
